<svg width="16" height="16" viewBox="0 0 16 16" fill="none" xmlns="http://www.w3.org/2000/svg">
<path d="M8 0.5C4.5535 0.5 1.75 3.304 1.75 6.75C1.75 10.196 4.55375 13 8 13C11.4465 13 14.25 10.196 14.25 6.75C14.25 3.304 11.4462 0.5 8 0.5ZM8 11.7502C5.24275 11.7502 2.99975 9.50725 2.99975 6.75C2.99975 3.99325 5.2425 1.75025 8 1.75025C10.757 1.75025 12.9998 3.99325 12.9998 6.75C12.9995 9.50725 10.7568 11.7502 8 11.7502Z" fill="#999999"/>
<path d="M6.35326 4.83425C6.58479 4.5888 6.86152 4.39034 7.16826 4.24975C7.48136 4.10591 7.8222 4.03252 8.16676 4.03475C8.60401 4.03475 9.00526 4.139 9.37101 4.3475C9.73155 4.5514 10.0387 4.83769 10.2675 5.183L11.1585 4.51675C10.82 4.05461 10.3802 3.6761 9.87276 3.41025C9.35726 3.13675 8.78826 3 8.16651 3C7.65426 3 7.17276 3.099 6.72226 3.2975C6.28191 3.48794 5.88199 3.76074 5.54401 4.10125C5.20652 4.44379 4.93709 4.84726 4.75001 5.29025C4.55526 5.74375 4.45801 6.231 4.45801 6.75025C4.45801 7.269 4.55526 7.75575 4.75001 8.2105C4.93688 8.6533 5.20635 9.05648 5.54401 9.3985C5.88201 9.73923 6.28191 10.0124 6.72226 10.2032C7.17301 10.4007 7.65451 10.5 8.16651 10.5C8.78826 10.5 9.35701 10.3633 9.87276 10.0895C10.3805 9.82406 10.8204 9.44548 11.1585 8.983L10.2675 8.31775C10.0384 8.66254 9.73124 8.94851 9.37101 9.1525C9.00526 9.36075 8.60401 9.465 8.16676 9.465C7.82219 9.46736 7.48132 9.39396 7.16826 9.25C6.86147 9.1095 6.58473 8.91103 6.35326 8.6655C6.12126 8.4205 5.93676 8.13275 5.80001 7.80525C5.66326 7.47775 5.59501 7.1255 5.59501 6.75025C5.59501 6.37425 5.66326 6.0225 5.80001 5.69475C5.93676 5.367 6.12126 5.08025 6.35326 4.83425" fill="#999999"/>
</svg>
