<svg width="24" height="24" viewBox="0 0 24 24" fill="none" xmlns="http://www.w3.org/2000/svg">
<path d="M20 10.1818C20 16.5455 12.5 22 12.5 22C12.5 22 5 16.5455 5 10.1818C5 8.01187 5.79018 5.93079 7.1967 4.3964C8.60322 2.86201 10.5109 2 12.5 2C14.4891 2 16.3968 2.86201 17.8033 4.3964C19.2098 5.93079 20 8.01187 20 10.1818Z" stroke="#FE5000" stroke-width="1.5" stroke-linecap="round" stroke-linejoin="round"/>
<path d="M12.5 14C14.433 14 16 12.433 16 10.5C16 8.567 14.433 7 12.5 7C10.567 7 9 8.567 9 10.5C9 12.433 10.567 14 12.5 14Z" stroke="#FE5000" stroke-width="1.5" stroke-linecap="round" stroke-linejoin="round"/>
</svg>
