<svg width="24" height="24" viewBox="0 0 24 24" fill="none" xmlns="http://www.w3.org/2000/svg">
<path d="M12 2C10.9012 2 9.82711 2.32411 8.9135 2.93135C7.99989 3.53859 7.28782 4.40168 6.86734 5.41149C6.44685 6.42129 6.33683 7.53245 6.55119 8.60445C6.76556 9.67645 7.29467 10.6611 8.07163 11.434C8.84859 12.2069 9.83849 12.7332 10.9162 12.9464C11.9938 13.1597 13.1109 13.0502 14.126 12.632C15.1412 12.2137 16.0088 11.5054 16.6193 10.5966C17.2297 9.68777 17.5556 8.61932 17.5556 7.52632C17.5556 6.06065 16.9702 4.65501 15.9284 3.61862C14.8865 2.58224 13.4734 2 12 2ZM12 10.8421C11.3407 10.8421 10.6963 10.6476 10.1481 10.2833C9.59994 9.91895 9.17269 9.40109 8.9204 8.79521C8.66811 8.18933 8.6021 7.52264 8.73072 6.87944C8.85933 6.23624 9.1768 5.64542 9.64298 5.1817C10.1092 4.71798 10.7031 4.40218 11.3497 4.27424C11.9963 4.1463 12.6665 4.21196 13.2756 4.46293C13.8847 4.71389 14.4053 5.13888 14.7716 5.68416C15.1378 6.22944 15.3333 6.87051 15.3333 7.52632C15.3333 8.40572 14.9821 9.2491 14.357 9.87093C13.7319 10.4928 12.8841 10.8421 12 10.8421ZM22 23V21.8947C22 19.8428 21.1806 17.8749 19.7219 16.424C18.2633 14.973 16.285 14.1579 14.2222 14.1579H9.77778C7.71498 14.1579 5.73667 14.973 4.27806 16.424C2.81944 17.8749 2 19.8428 2 21.8947V23H4.22222V21.8947C4.22222 20.4291 4.80754 19.0234 5.84941 17.987C6.89128 16.9507 8.30435 16.3684 9.77778 16.3684H14.2222C15.6956 16.3684 17.1087 16.9507 18.1506 17.987C19.1925 19.0234 19.7778 20.4291 19.7778 21.8947V23H22Z" fill="#FE5000"/>
</svg>
